<svg width="104" height="32" viewBox="0 0 104 32" fill="none" xmlns="http://www.w3.org/2000/svg">
<g clip-path="url(#clip0_567_1977)">
<path d="M19.0361 21.7103C18.5113 21.3167 17.9234 21.2484 17.5246 21.7785C17.2099 22.1445 16.8581 22.477 16.4749 22.7705C15.9092 23.1649 15.2383 23.3806 14.5487 23.3898C14.0867 23.3817 13.6299 23.2911 13.1999 23.1221C12.6346 22.8912 12.1046 22.582 11.6253 22.2037C11.5944 22.1746 11.5611 22.1482 11.5256 22.1249L11.4679 22.0777L11.3997 22.0357C11.2669 21.9424 11.1165 21.8771 10.9577 21.8437C10.799 21.8103 10.635 21.8096 10.4759 21.8415C10.1547 21.8485 9.84766 21.975 9.61473 22.1963C9.3818 22.4175 9.23974 22.7177 9.21631 23.0381V30.1708C9.21631 30.8373 9.84612 30.9213 10.6229 30.9213C11.3996 30.9213 12.019 30.8373 12.019 30.1708V25.253L12.3286 25.3789C13.0329 25.6623 13.7843 25.81 14.5435 25.8146V25.8146C15.2383 25.8124 15.9268 25.6825 16.5746 25.4314C17.3096 25.1434 17.9869 24.7256 18.5742 24.198C18.9056 23.8974 19.1967 23.5552 19.4402 23.1799C19.8391 22.655 19.5924 22.1302 19.0519 21.7155" fill="#6D3F00"/>
<path d="M8.5918 18.3408C8.5918 18.756 8.71493 19.1619 8.94561 19.5072C9.17629 19.8524 9.50416 20.1215 9.88777 20.2804C10.2714 20.4393 10.6935 20.4809 11.1007 20.3999C11.508 20.3189 11.882 20.1189 12.1756 19.8253C12.4692 19.5317 12.6692 19.1576 12.7502 18.7504C12.8312 18.3432 12.7896 17.921 12.6307 17.5374C12.4718 17.1538 12.2028 16.826 11.8575 16.5953C11.5123 16.3646 11.1064 16.2415 10.6912 16.2415C10.1344 16.2415 9.60039 16.4626 9.20669 16.8563C8.81298 17.2501 8.5918 17.784 8.5918 18.3408Z" fill="#6D3F00"/>
<path d="M20.1383 18.4878C20.1383 18.4878 12.3444 2.63227 12.1922 2.33836C12.0463 1.94585 11.7838 1.60736 11.4399 1.36834C11.0961 1.12933 10.6874 1.00122 10.2686 1.00122C9.84987 1.00122 9.44115 1.12933 9.09731 1.36834C8.75347 1.60736 8.49097 1.94585 8.34507 2.33836C8.21386 2.61128 0.650881 17.9839 0.650881 17.9839C0.229882 18.758 0.0148186 19.6273 0.0263169 20.5084C0.02409 21.2974 0.179322 22.079 0.482927 22.8072C0.785199 23.5526 1.28181 24.2032 1.92101 24.6914C2.67713 25.2638 3.59697 25.5783 4.54522 25.5889V25.5889C5.23152 25.5851 5.90931 25.4367 6.53436 25.1533C6.91406 24.9953 7.2679 24.7812 7.58405 24.5182C8.10889 24.0458 8.03017 23.542 7.63653 23.0014C7.2429 22.4608 6.75481 22.2089 6.21947 22.5973C6.21947 22.5973 5.7681 22.8597 5.52142 22.9647C5.21579 23.0947 4.88783 23.1643 4.55571 23.1694C4.10902 23.1671 3.67552 23.0177 3.32233 22.7442C3.035 22.5118 2.81413 22.2076 2.68202 21.8625C2.50132 21.4341 2.41024 20.9733 2.41436 20.5084C2.40176 20.0386 2.51211 19.5736 2.73451 19.1596V19.1281L10.224 3.90764L17.9287 19.5794C18.1439 20.0098 18.6477 20.1043 19.3615 19.7421C20.0753 19.38 20.2957 18.9286 20.0858 18.4773" fill="#AACE36"/>
<path d="M33.3066 22.8282C33.4833 22.7576 33.6299 22.6277 33.7212 22.4608C33.8282 22.2332 33.8751 21.9821 33.8577 21.7313V19.359H35.4584V18.0784H25.5389V19.359H27.019V21.7208C27.0169 21.9647 27.067 22.2063 27.1659 22.4293C27.2028 22.5202 27.2589 22.602 27.3305 22.6691C27.4021 22.7362 27.4874 22.7869 27.5806 22.8177H25.3867V24.0826H35.6002V22.8124L33.3066 22.8282ZM31.816 21.9832C31.8242 22.1962 31.7771 22.4077 31.6796 22.5973C31.6397 22.6713 31.5794 22.7324 31.506 22.7733C31.4325 22.8142 31.3489 22.8332 31.265 22.8282H29.7691C29.6656 22.8403 29.5607 22.8276 29.463 22.7911C29.3653 22.7546 29.2778 22.6954 29.2076 22.6183C29.0969 22.4257 29.0457 22.2048 29.0606 21.9832V19.359H31.816V21.9832Z" fill="#6D3F00"/>
<path d="M37.3896 27.1372H50.1381V28.423H37.3896V27.1372ZM40.7067 25.3737C40.2468 25.4129 39.7866 25.3024 39.3946 25.0588C39.2571 24.9357 39.1496 24.7828 39.0805 24.6118C39.0113 24.4407 38.9823 24.2561 38.9957 24.0721V22.7862C38.9974 22.5848 39.0366 22.3855 39.1111 22.1984C39.1992 21.9935 39.3361 21.8133 39.51 21.6736C39.7388 21.4984 39.9989 21.3684 40.2763 21.2904C40.6709 21.1816 41.0795 21.1321 41.4887 21.1435H45.509C45.6508 21.1535 45.7922 21.1186 45.9131 21.0438C46.0128 20.986 46.0548 20.8653 46.0548 20.6869V19.7946C46.0548 19.6057 46.0128 19.4902 45.9236 19.443C45.797 19.392 45.661 19.3688 45.5247 19.3748H39.1426V18.0941H46.6374C47.0072 18.0803 47.3727 18.1771 47.6871 18.3723C47.8324 18.4885 47.9464 18.6391 48.0188 18.8105C48.0912 18.9818 48.1197 19.1686 48.1017 19.3538V20.6291C48.1103 20.9297 48.0378 21.227 47.8918 21.4899C47.7487 21.7229 47.5457 21.9132 47.3039 22.041C47.0421 22.1867 46.7557 22.2828 46.4589 22.3244C46.1292 22.3777 45.7957 22.404 45.4617 22.4031H41.4939C41.3846 22.4026 41.2768 22.4278 41.179 22.4766C41.0846 22.5238 41.0373 22.6445 41.0373 22.8545V23.668C41.0287 23.736 41.0361 23.8051 41.0588 23.8698C41.0816 23.9345 41.1192 23.993 41.1685 24.0406C41.2706 24.1043 41.3895 24.1354 41.5096 24.1298H48.2696V25.379L40.7067 25.3737Z" fill="#6D3F00"/>
<path d="M24.2739 25.7411V27.0007H29.4751V30.9475H30.698C30.8311 30.9622 30.9657 30.9441 31.0902 30.8947C31.2146 30.8453 31.325 30.7661 31.4118 30.6641C31.5547 30.4738 31.6287 30.2407 31.6217 30.0028V27.0007H37.0328V25.7411H24.2739Z" fill="#6D3F00"/>
<path d="M57.2864 17.7845V21.9045H56.095C56.1498 21.508 56.1778 21.1082 56.1789 20.7079V19.7474C56.1796 19.5584 56.1585 19.37 56.1159 19.1858C56.0779 19.0127 55.9967 18.852 55.8797 18.7187C55.7504 18.5804 55.5904 18.4744 55.4127 18.409C55.1628 18.3326 54.9023 18.2972 54.6411 18.3041H50.5421V19.5637H53.7804C53.9588 19.5637 54.069 19.6162 54.1163 19.7159C54.1692 19.842 54.1943 19.9781 54.1898 20.1148C54.1969 20.8638 54.1248 21.6115 53.9746 22.3454C53.8458 22.966 53.6209 23.5628 53.308 24.1141C53.0008 24.6385 52.6047 25.1056 52.1376 25.4944C51.6082 25.9206 51.0239 26.2737 50.4004 26.5441L50.7625 27.3209C50.878 27.5466 51.0092 27.6778 51.1562 27.704C51.2654 27.7244 51.3775 27.7244 51.4868 27.704C52.008 27.5101 52.5034 27.2528 52.9616 26.9377C53.4058 26.6349 53.8143 26.2828 54.1793 25.8881C54.54 25.4989 54.8568 25.0712 55.124 24.6127C55.3887 24.1528 55.6068 23.6675 55.7748 23.1641H57.2864V29.8559H58.3623C58.4931 29.8712 58.6256 29.8533 58.7477 29.8038C58.8697 29.7542 58.9772 29.6746 59.0603 29.5724C59.1964 29.3754 59.2662 29.1401 59.2597 28.9006V17.7845H57.2864Z" fill="#6D3F00"/>
<path d="M60.3203 17.7845V29.8559H61.4015C61.5322 29.8703 61.6645 29.8519 61.7863 29.8024C61.9082 29.7529 62.0158 29.6739 62.0995 29.5724C62.2338 29.3747 62.3018 29.1395 62.2937 28.9006V17.7845H60.3203Z" fill="#6D3F00"/>
<path d="M74.1601 22.8282C74.3374 22.7564 74.4853 22.627 74.58 22.4608C74.6775 22.2305 74.7206 21.9809 74.7059 21.7313V19.359H76.2962V18.0784H66.3767V19.359H67.8987V21.7208C67.8957 21.9654 67.9477 22.2075 68.0509 22.4293C68.0855 22.5216 68.1409 22.6046 68.2128 22.672C68.2847 22.7394 68.3712 22.7892 68.4656 22.8177H66.2612V24.0826H76.4537V22.8124L74.1601 22.8282ZM72.6643 21.9832C72.6741 22.1958 72.6289 22.4073 72.5331 22.5973C72.4932 22.6713 72.433 22.7324 72.3595 22.7733C72.286 22.8142 72.2024 22.8332 72.1185 22.8282H70.6227C70.5198 22.8413 70.4154 22.829 70.3184 22.7924C70.2214 22.7558 70.1349 22.696 70.0663 22.6183C69.951 22.4274 69.8979 22.2055 69.9141 21.9832V19.359H72.6643V21.9832Z" fill="#6D3F00"/>
<path d="M78.2437 27.1372H90.9921V28.423H78.2437V27.1372ZM81.5607 25.3737C81.1008 25.4129 80.6406 25.3024 80.2486 25.0588C80.1101 24.9362 80.0017 24.7836 79.9316 24.6125C79.8615 24.4414 79.8317 24.2565 79.8444 24.0721V22.7862C79.8454 22.5842 79.8864 22.3844 79.9651 22.1984C80.0512 21.9924 80.1885 21.8117 80.364 21.6736C80.5909 21.4985 80.8492 21.3684 81.125 21.2904C81.5215 21.1821 81.9318 21.1326 82.3427 21.1435H86.363C86.5047 21.1528 86.6459 21.1179 86.7671 21.0437C86.8196 21.0016 86.8603 20.9466 86.8851 20.884C86.91 20.8215 86.9181 20.7535 86.9088 20.6869V19.7946C86.9088 19.6057 86.8668 19.4902 86.7776 19.443C86.6508 19.3926 86.515 19.3694 86.3787 19.3748H79.9966V18.0941H87.4914C87.8613 18.0793 88.2271 18.1762 88.5411 18.3723C88.6892 18.4863 88.8056 18.6364 88.8791 18.8082C88.9527 18.9801 88.9808 19.1679 88.9609 19.3538V20.6291C88.9695 20.9297 88.897 21.227 88.751 21.4899C88.6056 21.7191 88.4054 21.9086 88.1684 22.0409C87.9047 22.1867 87.6165 22.2827 87.3182 22.3244C86.9885 22.3777 86.6549 22.404 86.321 22.4031H82.3531C82.2439 22.4026 82.136 22.4278 82.0383 22.4766C81.9438 22.5238 81.8965 22.6445 81.8965 22.8545V23.668C81.8873 23.7365 81.8949 23.8062 81.9186 23.8712C81.9424 23.9361 81.9817 23.9943 82.033 24.0406C82.1324 24.1058 82.2502 24.1371 82.3689 24.1298H89.1079V25.379L81.5607 25.3737Z" fill="#6D3F00"/>
<path d="M65.1279 25.7411V27.0007H70.3344V30.9475H71.573C71.7061 30.9622 71.8408 30.9441 71.9652 30.8947C72.0896 30.8453 72.2001 30.7661 72.2868 30.6641C72.4297 30.4738 72.5037 30.2407 72.4967 30.0028V27.0007H77.8711V25.7411H65.1279Z" fill="#6D3F00"/>
<path d="M98.1403 17.7845V21.9045H96.9437C97.0029 21.5084 97.0327 21.1084 97.0329 20.7079V19.7474C97.0336 19.5584 97.0125 19.37 96.9699 19.1858C96.9297 19.0145 96.8507 18.8547 96.739 18.7187C96.6067 18.5815 96.4453 18.4757 96.2666 18.409C96.0168 18.3326 95.7563 18.2972 95.4951 18.3041H91.3961V19.5637H94.6344C94.8128 19.5637 94.9231 19.6162 94.9703 19.7159C95.0213 19.8425 95.0445 19.9785 95.0385 20.1148C95.0462 20.8633 94.9776 21.6107 94.8338 22.3454C94.7009 22.9656 94.4744 23.562 94.162 24.1141C93.8547 24.6385 93.4587 25.1056 92.9916 25.4944C92.4622 25.9206 91.8779 26.2737 91.2544 26.5441L91.6165 27.3209C91.732 27.5466 91.8632 27.6778 92.0102 27.704C92.1194 27.7244 92.2315 27.7244 92.3408 27.704C92.8625 27.5113 93.358 27.2538 93.8156 26.9377C94.2587 26.6334 94.667 26.2814 95.0333 25.8881C95.394 25.4989 95.7108 25.0712 95.978 24.6127C96.2427 24.1528 96.4607 23.6675 96.6288 23.1641H98.1403V29.8559H99.19C99.3215 29.8707 99.4547 29.8525 99.5775 29.8031C99.7003 29.7536 99.8088 29.6743 99.8933 29.5724C100.028 29.3747 100.096 29.1395 100.088 28.9006V17.7845H98.1403Z" fill="#6D3F00"/>
<path d="M101.168 17.7845V29.8559H102.25C102.38 29.8703 102.513 29.8519 102.634 29.8024C102.756 29.7529 102.864 29.6739 102.948 29.5724C103.082 29.3747 103.15 29.1395 103.142 28.9006V17.7845H101.168Z" fill="#6D3F00"/>
<path d="M47.5296 3.20436C47.3433 2.78709 47.0694 2.41478 46.7265 2.11269C46.3525 1.78165 45.9175 1.52672 45.4459 1.36217C44.3397 0.998092 43.1459 0.998092 42.0397 1.36217C41.57 1.5249 41.1367 1.77809 40.7643 2.10744C40.4153 2.40381 40.1403 2.77764 39.9613 3.19912C39.7758 3.6208 39.681 4.07678 39.6831 4.53746C39.6808 4.99533 39.7775 5.44831 39.9666 5.86532C40.1579 6.28099 40.4331 6.65264 40.7748 6.95698C41.151 7.28508 41.5854 7.53966 42.0554 7.7075C43.1563 8.07146 44.345 8.07146 45.4459 7.7075C45.9166 7.54092 46.3512 7.28621 46.7265 6.95698C47.0682 6.6538 47.3419 6.28177 47.5296 5.86532C47.7096 5.44486 47.8024 4.99223 47.8024 4.53484C47.8024 4.07745 47.7096 3.62482 47.5296 3.20436M45.6191 5.30373C45.5398 5.55398 45.4093 5.78497 45.2358 5.98197C45.0623 6.17896 44.8497 6.33764 44.6114 6.44789C44.3424 6.57419 44.0479 6.63703 43.7507 6.63158C43.4552 6.63698 43.1624 6.57411 42.8952 6.44789C42.6574 6.33158 42.4451 6.16924 42.2706 5.97028C42.0975 5.76972 41.964 5.53822 41.877 5.28799C41.7905 5.0345 41.7462 4.76855 41.7458 4.50072C41.7452 4.23994 41.7951 3.98152 41.8927 3.7397C41.9888 3.49785 42.1254 3.27419 42.2969 3.0784C42.4808 2.87574 42.7052 2.71401 42.9557 2.6037C43.2061 2.4934 43.477 2.43697 43.7507 2.43809C44.0342 2.43422 44.3153 2.49151 44.5747 2.60604C44.8132 2.70956 45.0277 2.86147 45.2045 3.05215C45.3783 3.24916 45.5136 3.47704 45.6034 3.72396C45.6988 3.9845 45.7468 4.26001 45.7451 4.53746C45.7447 4.79801 45.7022 5.05678 45.6191 5.30373Z" fill="#6D3F00"/>
<path d="M64.876 7.19315C65.413 6.92953 65.9213 6.61119 66.3928 6.24319C66.8564 5.88822 67.2483 5.44826 67.5475 4.94682C67.8372 4.40435 67.9699 3.79183 67.9306 3.1781C67.9303 3.08794 67.9068 2.99936 67.8624 2.92092C67.8151 2.8317 67.6997 2.78447 67.5212 2.78447H63.3592V1.51435H68.424C68.6835 1.50434 68.9429 1.53987 69.1902 1.61932C69.3711 1.68457 69.5345 1.79052 69.6678 1.92897C69.7802 2.06524 69.8609 2.2248 69.904 2.39608C69.9425 2.58257 69.9618 2.7725 69.9617 2.96291V3.32505C69.9559 4.075 69.7763 4.81338 69.4369 5.48216C68.984 6.3213 68.3382 7.04084 67.5527 7.58153C67.0747 7.91782 66.571 8.21615 66.0464 8.47377C65.4836 8.7558 64.8924 8.97746 64.2829 9.13506C64.2377 9.14181 64.1917 9.14181 64.1465 9.13506C64.0771 9.13407 64.0083 9.12347 63.9418 9.10357C63.862 9.08253 63.7883 9.04297 63.7266 8.9881C63.6487 8.91558 63.5863 8.82812 63.5429 8.73093L63.186 7.95942C63.7529 7.73898 64.3197 7.48181 64.8918 7.19315M69.9408 8.98286C70.4863 8.97784 71.029 9.06295 71.5468 9.23478C71.6998 9.18039 71.8331 9.08175 71.9299 8.95138C72.0217 8.82559 72.0877 8.68288 72.1241 8.53149C72.1684 8.37419 72.1931 8.21201 72.1976 8.04865C72.1976 7.87545 72.1976 7.7075 72.1976 7.5238V1.021H74.2549V4.46396C74.3848 4.37428 74.5217 4.29529 74.6643 4.22778C74.8497 4.15596 75.0485 4.12551 75.2469 4.13856H76.5695V5.42443H74.2602V7.61827C74.2668 7.92054 74.2243 8.22186 74.1342 8.51049C74.059 8.73807 73.9454 8.95109 73.7983 9.14031C73.6516 9.31795 73.4738 9.46735 73.2735 9.58118C73.089 9.69446 72.8939 9.78939 72.6909 9.8646C73.0404 10.1281 73.3302 10.4626 73.5412 10.846C73.751 11.2455 73.8574 11.6912 73.8508 12.1424C73.8528 12.5428 73.7668 12.9388 73.5989 13.3023C73.4252 13.6846 73.1731 14.0261 72.8589 14.3048C72.4949 14.6215 72.0748 14.8672 71.6203 15.029C71.0658 15.2236 70.481 15.3178 69.8935 15.3072C69.3847 15.3086 68.8781 15.2415 68.3872 15.1078C67.9326 14.9871 67.504 14.7843 67.1224 14.5095C66.7616 14.2501 66.4638 13.9129 66.2511 13.5227C66.0286 13.0997 65.9217 12.6253 65.9415 12.1477C65.9375 11.6552 66.0623 11.1703 66.3036 10.7411C66.5306 10.3527 66.8406 10.0193 67.2116 9.76488C67.5948 9.50552 68.0188 9.31215 68.466 9.1928C68.9366 9.06615 69.4219 9.00261 69.9093 9.00385M69.9093 10.2845C69.6304 10.2776 69.3533 10.3295 69.0958 10.4367C68.871 10.5295 68.6674 10.667 68.4974 10.8408C68.3377 11.0158 68.2114 11.2186 68.1248 11.4391C68.0423 11.6663 67.9997 11.906 67.9988 12.1477C67.9996 12.3872 68.0404 12.6249 68.1195 12.851C68.1947 13.0735 68.3163 13.2774 68.4764 13.4493C68.6435 13.6257 68.8431 13.7683 69.0642 13.8691C69.3275 13.9754 69.6096 14.0272 69.8935 14.0213C70.1544 14.0415 70.4166 14.005 70.6621 13.9145C70.9076 13.8239 71.1306 13.6813 71.3158 13.4965C71.6398 13.1276 71.8106 12.6488 71.7934 12.1582C71.8155 11.9011 71.7798 11.6423 71.689 11.4007C71.5982 11.1592 71.4545 10.941 71.2686 10.7621C70.895 10.4473 70.4186 10.281 69.9302 10.295" fill="#6D3F00"/>
<path d="M37.5103 9.20856V10.4734H42.7062V14.331H43.9133C44.0458 14.3442 44.1795 14.3258 44.3036 14.2775C44.4276 14.2291 44.5385 14.1522 44.6271 14.0529C44.7687 13.8616 44.8442 13.6295 44.8423 13.3916V10.4734H50.2482V9.20856H37.5103Z" fill="#6D3F00"/>
<path d="M59.9 1.17322V9.04586C59.6404 9.26346 59.3328 9.41636 59.0025 9.49198C58.5101 9.61387 58.0034 9.6686 57.4962 9.65468H53.5022C53.3852 9.65913 53.2691 9.63192 53.1663 9.57594C53.0771 9.5182 53.0351 9.39225 53.0351 9.2033V7.20365C53.0351 6.99372 53.0771 6.8625 53.1715 6.82051C53.2697 6.77334 53.3776 6.74997 53.4864 6.7523H55.3024C55.6269 6.75279 55.9512 6.73351 56.2733 6.69456C56.5498 6.66842 56.8187 6.59005 57.0659 6.46362C57.286 6.35506 57.4688 6.18328 57.5907 5.97027C57.7252 5.71153 57.7886 5.42176 57.7744 5.13053V2.95768C57.7945 2.77284 57.7675 2.58591 57.6959 2.41431C57.6243 2.24271 57.5105 2.09201 57.365 1.97623C57.0508 1.78008 56.6856 1.68145 56.3153 1.69281H51.1037V2.97342H55.1712C55.3098 2.96615 55.4482 2.99131 55.5753 3.0469C55.6646 3.09414 55.7065 3.2096 55.7065 3.39855V5.03081C55.7153 5.09822 55.7069 5.16675 55.6821 5.23005C55.6573 5.29335 55.617 5.34938 55.5648 5.39296C55.4418 5.46166 55.3012 5.49268 55.1607 5.48217H53.308C52.905 5.46966 52.5026 5.52284 52.1166 5.63962C51.8562 5.71239 51.6157 5.84341 51.4133 6.02276C51.2561 6.16727 51.1355 6.34719 51.0617 6.5476C51.0037 6.74 50.9737 6.93973 50.9725 7.14068V9.61268C50.9579 9.79681 50.9864 9.98182 51.0556 10.1531C51.1248 10.3243 51.2329 10.4771 51.3713 10.5994C51.7615 10.8477 52.2228 10.9603 52.6834 10.9195H57.5592C57.979 10.9193 58.3977 10.8753 58.8083 10.7883C59.199 10.7133 59.5704 10.5598 59.9 10.337V12.5938C59.9029 12.641 59.9029 12.6883 59.9 12.7355V13.2236H61.0757C61.2081 13.2363 61.3417 13.2178 61.4657 13.1695C61.5897 13.1211 61.7005 13.0444 61.7895 12.9454C61.9336 12.7475 62.0092 12.508 62.0047 12.2631V1.17322H59.9Z" fill="#6D3F00"/>
<path d="M81.2404 1.54583V3.08887C81.2411 3.55649 81.3101 4.0215 81.4451 4.46921C81.5812 4.91626 81.7924 5.33688 82.0696 5.71308C82.3568 6.12053 82.7119 6.47559 83.1193 6.76277C83.5536 7.06681 84.0416 7.28586 84.5574 7.40833L84.085 8.22183C84.028 8.34019 83.9388 8.44018 83.8278 8.51049C83.7341 8.56001 83.6295 8.58527 83.5234 8.58397C83.4223 8.58398 83.3216 8.56985 83.2243 8.54199L82.9723 8.45802C82.7096 8.35862 82.4581 8.23196 82.2218 8.08013C81.9466 7.90509 81.6883 7.70478 81.4503 7.4818C81.2028 7.25252 80.9746 7.00326 80.768 6.73653C80.5666 6.48676 80.4022 6.20923 80.2799 5.91253C80.158 6.22938 79.99 6.52649 79.7813 6.79426C79.5562 7.09717 79.3031 7.37832 79.0255 7.63401C78.7612 7.88112 78.4768 8.10582 78.1753 8.30581C77.941 8.47419 77.685 8.61013 77.4143 8.70993C77.3221 8.74373 77.2273 8.77005 77.1309 8.78865C77.0287 8.80944 76.9234 8.80944 76.8212 8.78865C76.7186 8.77783 76.6199 8.74374 76.5325 8.68895C76.4256 8.61331 76.339 8.51231 76.2806 8.39502L75.8555 7.61301C76.329 7.45633 76.7766 7.2299 77.1833 6.94121C77.588 6.6507 77.9425 6.29616 78.233 5.89153C78.5229 5.49387 78.7479 5.05278 78.8996 4.58468C79.0594 4.08606 79.1391 3.56524 79.1357 3.04164V1.51434L81.2404 1.54583Z" fill="#6D3F00"/>
<path d="M80.4057 12.9192C80.3875 13.0846 80.4264 13.2513 80.5159 13.3915C80.5588 13.435 80.6105 13.4688 80.6675 13.4905C80.7246 13.5123 80.7857 13.5215 80.8466 13.5175H87.89V14.7981H80.0174C79.8014 14.7991 79.5863 14.7727 79.377 14.7194C79.1834 14.6701 79.0038 14.5767 78.8522 14.4465C78.6921 14.3 78.5651 14.1211 78.4795 13.9216C78.3818 13.6619 78.3354 13.3856 78.3431 13.1081V10.0745H80.4425L80.4057 12.9192Z" fill="#6D3F00"/>
<path d="M88.5202 4.51644C88.3403 4.51422 88.1618 4.54813 87.9953 4.61617C87.8655 4.68355 87.7454 4.7683 87.6384 4.86809V0.989502H85.5391V10.8303H86.6727C86.8068 10.8439 86.9422 10.8258 87.068 10.7774C87.1938 10.7291 87.3065 10.652 87.397 10.5521C87.5483 10.3576 87.6263 10.1161 87.6175 9.86984V5.78657H89.911V4.50595L88.5202 4.51644Z" fill="#6D3F00"/>
<path d="M103.147 30.9003H102.591" stroke="#E4007F" stroke-width="0.39" stroke-miterlimit="10"/>
</g>
<defs>
<clipPath id="clip0_567_1977">
<rect width="104" height="32" fill="white"/>
</clipPath>
</defs>
</svg>
