<svg width="224" height="67" viewBox="0 0 224 67" fill="none" xmlns="http://www.w3.org/2000/svg">
<g clip-path="url(#clip0_69_66)">
<mask id="mask0_69_66" style="mask-type:luminance" maskUnits="userSpaceOnUse" x="0" y="0" width="224" height="67">
<path d="M224 0H0V67H224V0Z" fill="white"/>
</mask>
<g mask="url(#mask0_69_66)">
<path d="M215.169 55.0968C220.467 49.2535 223.711 41.5099 223.711 33.0302C223.711 14.9067 208.968 0.167969 190.837 0.167969C172.707 0.167969 157.964 14.9067 157.964 33.0302C157.964 51.1537 172.707 65.8925 190.837 65.8925C196.504 65.8925 201.839 64.4553 206.496 61.9258L209.133 64.5741C210.203 65.643 211.604 66.1775 213.006 66.1775C214.409 66.1775 215.81 65.643 216.879 64.5741C219.017 62.4363 219.017 58.9685 216.879 56.8307L215.157 55.1205L215.169 55.0968ZM190.837 54.9305C178.755 54.9305 168.929 45.1086 168.929 33.0302C168.929 20.9518 178.755 11.13 190.837 11.13C202.92 11.13 212.745 20.9518 212.745 33.0302C212.745 38.4934 210.725 43.4935 207.398 47.3414L205.26 45.2036C203.121 43.0659 199.652 43.0659 197.513 45.2036C195.375 47.3414 195.375 50.8092 197.513 52.947L198.216 53.6478C195.911 54.4792 193.415 54.9305 190.825 54.9305" fill="white"/>
<path d="M76.4802 65.9884C64.3739 65.9884 54.5723 56.1784 54.5723 44.0762C54.5723 31.9742 64.3857 22.176 76.4802 22.176C88.5749 22.176 98.4001 31.986 98.4001 44.0762C98.4001 56.1665 88.5867 65.9884 76.4802 65.9884ZM76.4802 33.1261C70.433 33.1261 65.5263 38.0311 65.5263 44.0762C65.5263 50.1214 70.433 55.0264 76.4802 55.0264C82.5276 55.0264 87.4343 50.1214 87.4343 44.0762C87.4343 38.0311 82.5276 33.1261 76.4802 33.1261Z" fill="white"/>
<path d="M50.1008 44.0881C50.1008 39.6463 51.1581 35.4539 53.0948 31.7604C50.4929 26.1071 44.7664 22.176 38.1489 22.176C33.9431 22.176 30.0818 23.7556 27.183 26.3565C24.2722 23.7556 20.5417 22.176 16.336 22.176C7.2591 22.176 0.0118807 29.5276 0.0118807 38.6012V60.4895H0C0 63.5299 2.3405 65.9884 5.37007 65.9884C8.39964 65.9884 10.752 63.5656 10.752 60.5251L10.657 38.6012C10.657 35.5727 13.342 33.1261 16.3597 33.1261C19.3774 33.1261 22.0625 35.5846 22.0625 38.6012V60.4895C22.0625 63.5299 24.3317 65.9884 27.3493 65.9884C30.367 65.9884 32.767 63.5656 32.767 60.5251H32.7075V38.4587H32.6719C32.6719 35.4183 34.9886 32.9598 38.0181 32.9598C41.0477 32.9598 43.3644 35.5727 43.3644 38.5893V60.4776C43.3644 63.5181 45.9307 65.9765 48.9602 65.9765C51.9898 65.9765 54.6036 63.5537 54.6036 60.5133L54.6274 58.91C51.5858 54.6701 50.089 49.5513 50.089 44.0643" fill="white"/>
<path d="M152.933 38.6012C152.933 29.5276 145.697 22.176 136.62 22.176C132.415 22.176 128.625 23.7556 125.726 26.3565C122.815 23.7556 119.001 22.176 114.796 22.176C108.166 22.176 102.487 26.1071 99.8853 31.7604C101.834 35.442 102.832 39.6344 102.832 44.0881C102.832 49.5869 101.204 54.6939 98.1626 58.9219V60.5014C98.1626 63.5418 100.729 66.0003 103.758 66.0003C106.788 66.0003 109.402 63.5775 109.402 60.537L109.568 38.6131C109.568 35.5846 111.861 33.138 114.891 33.138C117.92 33.138 120.213 35.5846 120.213 38.6131V60.5014C120.213 63.5418 122.708 66.0003 125.738 66.0003C128.767 66.0003 131.429 63.5775 131.429 60.537L131.452 38.4825C131.452 35.442 133.84 32.9836 136.87 32.9836C139.899 32.9836 142.287 35.5964 142.287 38.6131V60.5014C142.287 63.5418 144.711 66.0003 147.729 66.0003C150.746 66.0003 152.933 63.5775 152.933 60.537V38.6131V38.6012Z" fill="white"/>
</g>
</g>
<defs>
<clipPath id="clip0_69_66">
<rect width="224" height="67" fill="white"/>
</clipPath>
</defs>
</svg>
