<svg width="102" height="31" viewBox="0 0 102 31" fill="none" xmlns="http://www.w3.org/2000/svg">
<path d="M11.85 7.26H13.57V8.58C13.57 9.71333 13.3633 10.7733 12.95 11.76C12.55 12.7467 11.9633 13.6133 11.19 14.36C10.43 15.0933 9.50333 15.6467 8.41 16.02L7.33 14.38C8.30333 14.06 9.12333 13.6 9.79 13C10.4567 12.4 10.9633 11.72 11.31 10.96C11.67 10.1867 11.85 9.39333 11.85 8.58V7.26ZM12.27 7.26H13.99V8.58C13.99 9.16667 14.0833 9.74 14.27 10.3C14.47 10.8467 14.7633 11.36 15.15 11.84C15.5367 12.32 16.0033 12.7533 16.55 13.14C17.11 13.5133 17.7433 13.82 18.45 14.06L17.37 15.68C16.3033 15.3333 15.39 14.8067 14.63 14.1C13.87 13.3933 13.2833 12.5667 12.87 11.62C12.47 10.6733 12.27 9.66 12.27 8.58V7.26ZM20.13 5.36H22.23V16.42H20.13V5.36ZM9.93 17.3H22.23V23.66H20.13V19H9.93V17.3ZM7.89 6.56H17.87V8.24H7.89V6.56ZM33.7884 7.9H39.2884V9.58H33.7884V7.9ZM33.7884 12.04H39.2884V13.74H33.7884V12.04ZM30.5684 6.4C31.4751 6.4 32.2884 6.59333 33.0084 6.98C33.7284 7.35333 34.2951 7.87333 34.7084 8.54C35.1218 9.19333 35.3284 9.95333 35.3284 10.82C35.3284 11.6733 35.1218 12.4333 34.7084 13.1C34.2951 13.7533 33.7284 14.2667 33.0084 14.64C32.2884 15.0133 31.4751 15.2 30.5684 15.2C29.6751 15.2 28.8684 15.0133 28.1484 14.64C27.4284 14.2667 26.8618 13.7533 26.4484 13.1C26.0351 12.4333 25.8284 11.6733 25.8284 10.82C25.8284 9.95333 26.0351 9.19333 26.4484 8.54C26.8618 7.87333 27.4284 7.35333 28.1484 6.98C28.8684 6.59333 29.6751 6.4 30.5684 6.4ZM30.5684 8.18C30.0484 8.18 29.5818 8.29333 29.1684 8.52C28.7551 8.73333 28.4218 9.03333 28.1684 9.42C27.9284 9.80667 27.8084 10.2733 27.8084 10.82C27.8084 11.34 27.9284 11.8 28.1684 12.2C28.4218 12.5867 28.7551 12.8933 29.1684 13.12C29.5818 13.3333 30.0484 13.44 30.5684 13.44C31.1018 13.44 31.5751 13.3333 31.9884 13.12C32.4151 12.8933 32.7418 12.5867 32.9684 12.2C33.2084 11.8 33.3284 11.34 33.3284 10.82C33.3284 10.2733 33.2084 9.80667 32.9684 9.42C32.7418 9.03333 32.4151 8.73333 31.9884 8.52C31.5751 8.29333 31.1018 8.18 30.5684 8.18ZM38.6084 5.38H40.7084V16.14H38.6084V5.38ZM34.6284 16.54C35.8951 16.54 36.9884 16.68 37.9084 16.96C38.8284 17.24 39.5351 17.6467 40.0284 18.18C40.5351 18.7 40.7884 19.3333 40.7884 20.08C40.7884 20.8267 40.5351 21.4667 40.0284 22C39.5351 22.5333 38.8284 22.9333 37.9084 23.2C36.9884 23.48 35.8951 23.62 34.6284 23.62C33.3618 23.62 32.2684 23.48 31.3484 23.2C30.4284 22.9333 29.7151 22.5333 29.2084 22C28.7018 21.4667 28.4484 20.8267 28.4484 20.08C28.4484 19.3333 28.7018 18.7 29.2084 18.18C29.7151 17.6467 30.4284 17.24 31.3484 16.96C32.2684 16.68 33.3618 16.54 34.6284 16.54ZM34.6284 18.18C33.7618 18.18 33.0218 18.2533 32.4084 18.4C31.7951 18.5467 31.3284 18.76 31.0084 19.04C30.6884 19.32 30.5284 19.6667 30.5284 20.08C30.5284 20.4933 30.6884 20.8467 31.0084 21.14C31.3284 21.42 31.7951 21.6333 32.4084 21.78C33.0218 21.9267 33.7618 22 34.6284 22C35.4951 22 36.2284 21.9267 36.8284 21.78C37.4418 21.6333 37.9084 21.42 38.2284 21.14C38.5618 20.8467 38.7284 20.4933 38.7284 20.08C38.7284 19.6667 38.5618 19.32 38.2284 19.04C37.9084 18.76 37.4418 18.5467 36.8284 18.4C36.2284 18.2533 35.4951 18.18 34.6284 18.18ZM43.9669 13.1H60.4869V14.78H43.9669V13.1ZM51.1469 10.96H53.2269V13.64H51.1469V10.96ZM46.0669 5.94H58.3669V11.58H46.0669V5.94ZM56.3069 7.58H48.1069V9.96H56.3069V7.58ZM45.9069 16.04H58.4069V20.4H48.0069V22.36H45.9469V18.92H56.3469V17.62H45.9069V16.04ZM45.9469 21.88H58.9269V23.48H45.9469V21.88Z" fill="#D8282E"/>
<path d="M93.0002 22.86H77.6002C77.3902 22.86 77.1802 22.7292 77.0402 22.5984C76.9002 22.4677 76.9002 22.2061 76.9702 22.01L78.3002 18.8715L76.9702 7.16768H72.7002V5.85999H77.6002C77.9502 5.85999 78.2302 6.12152 78.3002 6.44845L79.7002 18.8715C79.7002 19.0023 79.7002 19.0677 79.6302 19.1984L78.6502 21.5523H93.7002L93.0002 22.86Z" fill="#D8282E"/>
<path d="M78.8751 19.3957L78.5876 18.0386L95.2626 14.7814V9.21713H78.0126V7.85999H95.9813C96.4126 7.85999 96.7001 8.13141 96.7001 8.53856V15.3243C96.7001 15.6636 96.4844 15.935 96.1251 16.0028L78.8751 19.3957ZM93.8251 26.86C92.2438 26.86 90.9501 25.6386 90.9501 24.1457C90.9501 22.6528 92.2438 21.4314 93.8251 21.4314C95.4063 21.4314 96.7001 22.6528 96.7001 24.1457C96.7001 25.6386 95.4063 26.86 93.8251 26.86ZM93.8251 22.7886C93.0344 22.7886 92.3876 23.3993 92.3876 24.1457C92.3876 24.8921 93.0344 25.5028 93.8251 25.5028C94.6157 25.5028 95.2626 24.8921 95.2626 24.1457C95.2626 23.3993 94.6157 22.7886 93.8251 22.7886ZM76.5751 26.86C74.9938 26.86 73.7001 25.6386 73.7001 24.1457C73.7001 22.6528 74.9938 21.4314 76.5751 21.4314C78.1563 21.4314 79.4501 22.6528 79.4501 24.1457C79.4501 25.6386 78.1563 26.86 76.5751 26.86ZM76.5751 22.7886C75.7844 22.7886 75.1376 23.3993 75.1376 24.1457C75.1376 24.8921 75.7844 25.5028 76.5751 25.5028C77.3657 25.5028 78.0126 24.8921 78.0126 24.1457C78.0126 23.3993 77.3657 22.7886 76.5751 22.7886Z" fill="#D8282E"/>
</svg>
